<svg width="32" height="32" viewBox="0 0 32 32" fill="none" xmlns="http://www.w3.org/2000/svg">
<circle cx="16" cy="16" r="16" fill="#F2F2F2"/>
<path d="M20.048 22H17.472L17.28 17.664C17.2267 16.6293 17.2 15.7067 17.2 14.896C17.2 14.2773 17.216 13.6907 17.248 13.136L15.536 20.832H13.056L11.232 13.136C11.296 14.064 11.328 14.9387 11.328 15.76C11.328 16.3787 11.312 17.024 11.28 17.696L11.088 22H8.528L9.36 10.912H12.672L14.336 18.432L15.888 10.912H19.216L20.048 22Z" fill="#2D2D2D"/>
<path d="M22.4981 19.376C22.8928 19.376 23.2288 19.52 23.5061 19.808C23.7941 20.0853 23.9381 20.4213 23.9381 20.816C23.9381 21.2213 23.7941 21.568 23.5061 21.856C23.2288 22.1333 22.8928 22.272 22.4981 22.272C22.0928 22.272 21.7461 22.1333 21.4581 21.856C21.1808 21.568 21.0421 21.2213 21.0421 20.816C21.0421 20.4213 21.1808 20.0853 21.4581 19.808C21.7461 19.52 22.0928 19.376 22.4981 19.376Z" fill="#13E1BC"/>
</svg>
