<svg width="165" height="35" viewBox="0 0 165 35" fill="none" xmlns="http://www.w3.org/2000/svg">
<path d="M35.144 34H27.416L26.84 20.992C26.68 17.888 26.6 15.12 26.6 12.688C26.6 10.832 26.648 9.072 26.744 7.408L21.608 30.496H14.168L8.696 7.408C8.888 10.192 8.984 12.816 8.984 15.28C8.984 17.136 8.936 19.072 8.84 21.088L8.264 34H0.584L3.08 0.735999H13.016L18.008 23.296L22.664 0.735999H32.648L35.144 34ZM59.9664 26.608C59.9664 27.568 60.0944 28.272 60.3504 28.72C60.6384 29.168 61.0864 29.504 61.6944 29.728L60.1104 34.672C58.5424 34.544 57.2624 34.208 56.2704 33.664C55.2784 33.088 54.5104 32.192 53.9664 30.976C52.3024 33.536 49.7424 34.816 46.2864 34.816C43.7584 34.816 41.7424 34.08 40.2384 32.608C38.7344 31.136 37.9824 29.216 37.9824 26.848C37.9824 24.064 39.0064 21.936 41.0544 20.464C43.1024 18.992 46.0624 18.256 49.9344 18.256H52.5264V17.152C52.5264 15.648 52.2064 14.624 51.5664 14.08C50.9264 13.504 49.8064 13.216 48.2064 13.216C47.3744 13.216 46.3664 13.344 45.1824 13.6C43.9984 13.824 42.7824 14.144 41.5344 14.56L39.8064 9.568C41.4064 8.96 43.0384 8.496 44.7024 8.176C46.3984 7.856 47.9664 7.696 49.4064 7.696C53.0544 7.696 55.7264 8.448 57.4224 9.952C59.1184 11.456 59.9664 13.712 59.9664 16.72V26.608ZM48.4944 29.392C50.2224 29.392 51.5664 28.576 52.5264 26.944V22.432H50.6544C48.9264 22.432 47.6304 22.736 46.7664 23.344C45.9344 23.952 45.5184 24.896 45.5184 26.176C45.5184 27.2 45.7744 28 46.2864 28.576C46.8304 29.12 47.5664 29.392 48.4944 29.392ZM79.8313 7.792C80.7593 7.792 81.6073 7.904 82.3753 8.128L81.1753 15.472C80.2153 15.248 79.4473 15.136 78.8713 15.136C77.3673 15.136 76.2153 15.664 75.4153 16.72C74.6473 17.744 74.0393 19.296 73.5913 21.376V34H66.0073V8.512H72.6313L73.2553 13.456C73.8313 11.696 74.6953 10.32 75.8473 9.328C77.0313 8.304 78.3593 7.792 79.8313 7.792ZM94.8598 7.696C96.6198 7.696 98.2038 7.952 99.6118 8.464C101.02 8.976 102.348 9.76 103.596 10.816L100.332 15.328C98.7318 14.112 97.1158 13.504 95.4838 13.504C93.7878 13.504 92.5078 14.128 91.6438 15.376C90.7798 16.624 90.3478 18.64 90.3478 21.424C90.3478 24.112 90.7798 26.016 91.6438 27.136C92.5078 28.256 93.7558 28.816 95.3878 28.816C96.2518 28.816 97.0358 28.688 97.7398 28.432C98.4438 28.144 99.2918 27.696 100.284 27.088L103.596 31.792C101.068 33.808 98.2038 34.816 95.0038 34.816C92.4118 34.816 90.1718 34.272 88.2838 33.184C86.3958 32.064 84.9398 30.512 83.9158 28.528C82.8918 26.512 82.3798 24.16 82.3798 21.472C82.3798 18.784 82.8918 16.4 83.9158 14.32C84.9398 12.24 86.3958 10.624 88.2838 9.472C90.1718 8.288 92.3638 7.696 94.8598 7.696ZM127.824 34H121.248L120.912 30.784C119.056 33.472 116.48 34.816 113.184 34.816C110.848 34.816 109.072 34.112 107.856 32.704C106.672 31.296 106.08 29.328 106.08 26.8V8.512H113.664V25.84C113.664 27.088 113.856 27.968 114.24 28.48C114.656 28.96 115.28 29.2 116.112 29.2C117.712 29.2 119.088 28.208 120.24 26.224V8.512H127.824V34ZM142.765 7.696C144.589 7.696 146.301 7.968 147.901 8.512C149.501 9.056 150.909 9.824 152.125 10.816L149.341 15.088C147.261 13.776 145.165 13.12 143.053 13.12C142.061 13.12 141.293 13.296 140.749 13.648C140.237 13.968 139.981 14.432 139.981 15.04C139.981 15.52 140.093 15.92 140.317 16.24C140.573 16.528 141.069 16.832 141.805 17.152C142.541 17.472 143.677 17.856 145.213 18.304C147.869 19.072 149.837 20.08 151.117 21.328C152.429 22.544 153.085 24.24 153.085 26.416C153.085 28.144 152.589 29.648 151.597 30.928C150.605 32.176 149.245 33.136 147.517 33.808C145.789 34.48 143.869 34.816 141.757 34.816C139.613 34.816 137.613 34.48 135.757 33.808C133.933 33.136 132.381 32.208 131.101 31.024L134.797 26.896C136.941 28.56 139.197 29.392 141.565 29.392C142.717 29.392 143.613 29.184 144.253 28.768C144.925 28.352 145.261 27.76 145.261 26.992C145.261 26.384 145.133 25.904 144.877 25.552C144.621 25.2 144.125 24.88 143.389 24.592C142.653 24.272 141.485 23.888 139.885 23.44C137.357 22.704 135.469 21.68 134.221 20.368C132.973 19.056 132.349 17.424 132.349 15.472C132.349 14 132.765 12.688 133.597 11.536C134.461 10.352 135.677 9.424 137.245 8.752C138.845 8.048 140.685 7.696 142.765 7.696Z" fill="#2D2D2D"/>
<path d="M159.776 26.128C160.96 26.128 161.968 26.56 162.8 27.424C163.664 28.256 164.096 29.264 164.096 30.448C164.096 31.664 163.664 32.704 162.8 33.568C161.968 34.4 160.96 34.816 159.776 34.816C158.56 34.816 157.52 34.4 156.656 33.568C155.824 32.704 155.408 31.664 155.408 30.448C155.408 29.264 155.824 28.256 156.656 27.424C157.52 26.56 158.56 26.128 159.776 26.128Z" fill="#13E1BC"/>
</svg>
